<svg width="1250" height="377" viewBox="0 0 1250 377" fill="none" xmlns="http://www.w3.org/2000/svg">
<g opacity="0.4">
<path d="M1025.8 213.607L1271.73 213.607L1271.73 210.679L1025.8 210.679L1025.8 213.607Z" fill="#A30C33"/>
<path d="M1283.44 225.315L1286.37 225.315L1286.37 242.882C1286.37 243.321 1286.22 243.614 1285.93 243.906L1196.34 333.203C1196.05 333.496 1195.75 333.642 1195.31 333.642L1113.63 333.642L1113.63 330.714L1194.73 330.714L1283.44 242.296L1283.44 225.315Z" fill="#A30C33"/>
<path d="M1071.18 77.4636L1180.97 77.4635C1181.41 77.4635 1181.7 77.6099 1181.99 77.9027L1285.93 181.838C1286.22 182.131 1286.37 182.424 1286.37 182.863L1286.37 197.501L1283.44 197.501L1283.44 183.448L1180.38 80.3913L1071.18 80.3913L1071.18 77.4636Z" fill="#A30C33"/>
<path d="M1144.38 171.152L1203.22 171.152C1203.66 171.152 1203.96 171.298 1204.25 171.591L1243.77 210.823L1241.72 212.873L1202.64 174.08L1144.38 174.08L1144.38 171.152Z" fill="#A30C33"/>
<path d="M1185.07 210.971L1187.12 213.02L1147.74 252.691C1147.45 252.984 1147.15 253.13 1146.71 253.13L1087.28 253.13L1087.28 250.203L1146.13 250.203L1185.07 210.971Z" fill="#A30C33"/>
<path d="M961.396 285.335L1193.86 285.335C1194.3 285.335 1194.59 285.481 1194.88 285.774L1218.16 309.343L1216.11 311.392L1193.27 288.263L961.396 288.263L961.396 285.335Z" fill="#A30C33"/>
<path d="M1168.68 331.155L1170.73 333.205L1132.67 371.265C1132.37 371.558 1132.08 371.705 1131.64 371.705L1009.7 371.705L1009.7 368.777L1131.06 368.777L1168.68 331.155Z" fill="#A30C33"/>
<path d="M1144.96 5.73227L1203.96 64.7265C1204.25 65.0193 1204.39 65.3121 1204.39 65.7512L1204.39 100.884L1201.47 100.884L1201.47 66.3368L1142.91 7.78169L1144.96 5.73227Z" fill="#A30C33"/>
<path d="M1158.28 78.3453L1160.33 80.3947L1121.54 119.48C1121.25 119.773 1120.95 119.919 1120.51 119.919L973.102 119.919L973.102 116.992L1119.78 116.992L1158.28 78.3453Z" fill="#A30C33"/>
<path d="M1021.41 36.4737L1086.99 36.4737C1087.43 36.4737 1087.72 36.6201 1088.02 36.9129L1129.3 78.1942L1127.25 80.2437L1086.41 39.4015L1021.41 39.4015L1021.41 36.4737Z" fill="#A30C33"/>
<path d="M1009.7 363.506C1005.98 363.506 1002.96 366.521 1002.96 370.24C1002.96 373.959 1005.98 376.974 1009.7 376.974C1013.41 376.974 1016.43 373.959 1016.43 370.24C1016.43 366.521 1013.41 363.506 1009.7 363.506Z" fill="#A30C33"/>
<path d="M1100.46 316.663C1108.95 316.663 1115.97 323.543 1115.97 332.18C1115.97 340.817 1109.09 347.697 1100.46 347.697C1091.82 347.697 1084.94 340.817 1084.94 332.18C1084.94 323.543 1091.97 316.663 1100.46 316.663ZM1100.46 344.769C1107.34 344.769 1113.04 339.06 1113.04 332.18C1113.04 325.299 1107.34 319.59 1100.46 319.59C1093.58 319.59 1087.87 325.299 1087.87 332.18C1087.87 339.06 1093.58 344.769 1100.46 344.769Z" fill="#A30C33"/>
<path d="M1100.46 325.448C1096.74 325.448 1093.73 328.463 1093.73 332.182C1093.73 335.901 1096.74 338.916 1100.46 338.916C1104.18 338.916 1107.2 335.901 1107.2 332.182C1107.2 328.463 1104.18 325.448 1100.46 325.448Z" fill="#A30C33"/>
<path d="M954.657 286.506C954.657 282.846 957.731 279.772 961.391 279.772C965.051 279.772 968.125 282.846 968.125 286.506C968.125 290.166 965.051 293.24 961.391 293.24C957.731 293.24 954.657 290.312 954.657 286.506Z" fill="#A30C33"/>
<path d="M1087.29 244.932C1083.57 244.932 1080.55 247.947 1080.55 251.666C1080.55 255.385 1083.57 258.4 1087.29 258.4C1091 258.4 1094.02 255.385 1094.02 251.666C1094.02 247.947 1091 244.932 1087.29 244.932Z" fill="#A30C33"/>
<path d="M1012.63 196.624C1021.12 196.624 1028.14 203.504 1028.14 212.141C1028.14 220.777 1021.26 227.658 1012.63 227.658C1003.99 227.658 997.11 220.777 997.11 212.141C997.11 203.504 1004.14 196.624 1012.63 196.624ZM1012.63 224.73C1019.51 224.73 1025.22 219.021 1025.22 212.141C1025.22 205.26 1019.51 199.551 1012.63 199.551C1005.75 199.551 1000.04 205.26 1000.04 212.141C1000.04 219.021 1005.75 224.73 1012.63 224.73Z" fill="#A30C33"/>
<path d="M1012.63 205.409C1008.91 205.409 1005.9 208.424 1005.9 212.143C1005.9 215.862 1008.91 218.876 1012.63 218.876C1016.35 218.876 1019.37 215.862 1019.37 212.143C1019.37 208.424 1016.35 205.409 1012.63 205.409Z" fill="#A30C33"/>
<path d="M1144.38 165.881C1140.66 165.881 1137.65 168.896 1137.65 172.615C1137.65 176.334 1140.66 179.349 1144.38 179.349C1148.1 179.349 1151.12 176.334 1151.12 172.615C1151.12 168.896 1148.1 165.881 1144.38 165.881Z" fill="#A30C33"/>
<path d="M973.098 111.717C969.379 111.717 966.364 114.732 966.364 118.451C966.364 122.17 969.379 125.185 973.098 125.185C976.817 125.185 979.832 122.17 979.832 118.451C979.832 114.732 976.817 111.717 973.098 111.717Z" fill="#A30C33"/>
<path d="M1058.01 63.7017C1066.5 63.7017 1073.52 70.5819 1073.52 79.2188C1073.52 87.8557 1066.64 94.7358 1058.01 94.7358C1049.37 94.7358 1042.49 87.8557 1042.49 79.2188C1042.49 70.5819 1049.52 63.7017 1058.01 63.7017ZM1058.01 91.8081C1064.89 91.8081 1070.6 86.099 1070.6 79.2188C1070.6 72.3386 1064.89 66.6294 1058.01 66.6294C1051.13 66.6294 1045.42 72.3386 1045.42 79.2188C1045.42 86.099 1051.13 91.8081 1058.01 91.8081Z" fill="#A30C33"/>
<path d="M1051.27 79.2208C1051.27 75.5611 1054.35 72.4869 1058.01 72.4869C1061.67 72.4869 1064.74 75.5611 1064.74 79.2208C1064.74 82.8805 1061.67 85.9546 1058.01 85.9546C1054.35 85.9546 1051.27 82.8805 1051.27 79.2208Z" fill="#A30C33"/>
<path d="M1021.41 31.2057C1017.69 31.2057 1014.68 34.2205 1014.68 37.9395C1014.68 41.6585 1017.69 44.6733 1021.41 44.6733C1025.13 44.6733 1028.14 41.6585 1028.14 37.9395C1028.14 34.2205 1025.13 31.2057 1021.41 31.2057Z" fill="#A30C33"/>
<path d="M1137.2 6.75985C1137.2 3.10016 1140.27 0.0260105 1143.93 0.0260101C1147.59 0.0260098 1150.66 3.10016 1150.66 6.75985C1150.66 10.4195 1147.59 13.4937 1143.93 13.4937C1140.12 13.3473 1137.2 10.4195 1137.2 6.75985Z" fill="#A30C33"/>
<g opacity="0.4">
<path d="M1137.2 213.479L1274.65 213.479L1274.65 210.808L1137.2 210.808L1137.2 213.479Z" fill="black"/>
<path d="M1283.44 225.315L1286.37 225.315L1286.37 242.882C1286.37 243.321 1286.22 243.614 1285.93 243.906L1196.34 333.203C1196.05 333.496 1195.75 333.642 1195.31 333.642L1113.63 333.642L1113.63 330.714L1194.73 330.714L1283.44 242.296L1283.44 225.315Z" fill="black"/>
<path d="M1071.18 77.4636L1180.97 77.4635C1181.41 77.4635 1181.7 77.6099 1181.99 77.9027L1285.93 181.838C1286.22 182.131 1286.37 182.424 1286.37 182.863L1286.37 197.501L1283.44 197.501L1283.44 183.448L1180.38 80.3913L1071.18 80.3913L1071.18 77.4636Z" fill="black"/>
<path d="M1144.37 171.152L1203.22 171.152C1203.66 171.152 1203.95 171.298 1204.24 171.591L1243.77 210.823L1241.72 212.873L1202.63 174.08L1144.37 174.08L1144.37 171.152Z" fill="black"/>
<path d="M1185.07 210.971L1187.12 213.02L1147.74 252.691C1147.45 252.984 1147.15 253.13 1146.71 253.13L1107.28 253.13L1107.28 250.203L1146.13 250.203L1185.07 210.971Z" fill="black"/>
<path d="M961.388 285.335L1193.85 285.335C1194.29 285.335 1194.58 285.481 1194.88 285.774L1218.15 309.343L1216.1 311.392L1193.27 288.263L961.388 288.263L961.388 285.335Z" fill="black"/>
<path d="M1168.67 331.155L1170.72 333.205L1132.66 371.265C1132.37 371.558 1132.07 371.705 1131.63 371.705L1009.69 371.705L1009.69 368.777L1131.05 368.777L1168.67 331.155Z" fill="black"/>
<path d="M1144.96 5.73227L1203.95 64.7265C1204.24 65.0193 1204.39 65.3121 1204.39 65.7512L1204.39 100.884L1201.46 100.884L1201.46 66.3368L1142.91 7.78169L1144.96 5.73227Z" fill="black"/>
<path d="M1158.28 78.3453L1160.33 80.3947L1121.54 119.48C1121.25 119.773 1120.95 119.919 1120.51 119.919L973.102 119.919L973.102 116.992L1119.78 116.992L1158.28 78.3453Z" fill="black"/>
<path d="M1021.41 36.4737L1086.99 36.4737C1087.43 36.4737 1087.72 36.6201 1088.02 36.9129L1129.3 78.1942L1127.25 80.2437L1086.41 39.4015L1021.41 39.4015L1021.41 36.4737Z" fill="black"/>
<path d="M1009.7 363.506C1005.98 363.506 1002.96 366.521 1002.96 370.24C1002.96 373.959 1005.98 376.974 1009.7 376.974C1013.41 376.974 1016.43 373.959 1016.43 370.24C1016.43 366.521 1013.41 363.506 1009.7 363.506Z" fill="black"/>
<path d="M1100.46 316.663C1108.95 316.663 1115.98 323.543 1115.98 332.18C1115.98 340.817 1109.1 347.697 1100.46 347.697C1091.82 347.697 1084.94 340.817 1084.94 332.18C1084.94 323.543 1091.97 316.663 1100.46 316.663ZM1100.46 344.769C1107.34 344.769 1113.05 339.06 1113.05 332.18C1113.05 325.299 1107.34 319.59 1100.46 319.59C1093.58 319.59 1087.87 325.299 1087.87 332.18C1087.87 339.06 1093.58 344.769 1100.46 344.769Z" fill="black"/>
<path d="M954.653 286.506C954.653 282.846 957.728 279.772 961.387 279.772C965.047 279.772 968.121 282.846 968.121 286.506C968.121 290.166 965.047 293.24 961.387 293.24C957.728 293.24 954.653 290.312 954.653 286.506Z" fill="black"/>
<path d="M1107.29 244.932C1103.57 244.932 1100.55 247.947 1100.55 251.666C1100.55 255.385 1103.57 258.4 1107.29 258.4C1111 258.4 1114.02 255.385 1114.02 251.666C1114.02 247.947 1111 244.932 1107.29 244.932Z" fill="black"/>
<path d="M1144.38 165.881C1140.66 165.881 1137.65 168.896 1137.65 172.615C1137.65 176.334 1140.66 179.349 1144.38 179.349C1148.1 179.349 1151.11 176.334 1151.11 172.615C1151.11 168.896 1148.1 165.881 1144.38 165.881Z" fill="black"/>
<path d="M1134 206.139C1130.28 206.139 1127.27 209.154 1127.27 212.873C1127.27 216.592 1130.28 219.606 1134 219.606C1137.72 219.606 1140.73 216.592 1140.73 212.873C1140.73 209.154 1137.72 206.139 1134 206.139Z" fill="black"/>
<path d="M973.098 111.717C969.379 111.717 966.364 114.732 966.364 118.451C966.364 122.17 969.379 125.185 973.098 125.185C976.817 125.185 979.832 122.17 979.832 118.451C979.832 114.732 976.817 111.717 973.098 111.717Z" fill="black"/>
<path d="M1058 63.7017C1066.49 63.7017 1073.52 70.5819 1073.52 79.2188C1073.52 87.8557 1066.64 94.7358 1058 94.7358C1049.37 94.7358 1042.49 87.8557 1042.49 79.2188C1042.49 70.5819 1049.51 63.7017 1058 63.7017ZM1058 91.8081C1064.88 91.8081 1070.59 86.099 1070.59 79.2188C1070.59 72.3386 1064.88 66.6294 1058 66.6294C1051.12 66.6294 1045.41 72.3386 1045.41 79.2188C1045.41 86.099 1051.12 91.8081 1058 91.8081Z" fill="black"/>
<path d="M1021.41 31.2057C1017.69 31.2057 1014.67 34.2205 1014.67 37.9395C1014.67 41.6585 1017.69 44.6733 1021.41 44.6733C1025.13 44.6733 1028.14 41.6585 1028.14 37.9395C1028.14 34.2205 1025.13 31.2057 1021.41 31.2057Z" fill="black"/>
<path d="M1137.2 6.75985C1137.2 3.10016 1140.27 0.0260105 1143.93 0.0260101C1147.59 0.0260098 1150.66 3.10016 1150.66 6.75985C1150.66 10.4195 1147.59 13.4937 1143.93 13.4937C1140.12 13.3473 1137.2 10.4195 1137.2 6.75985Z" fill="black"/>
</g>
</g>
<g opacity="0.4">
<path d="M228.904 163.393L-17.0273 163.393V166.321L228.904 166.321V163.393Z" fill="#A30C33"/>
<path d="M-28.7324 151.685H-31.6602V134.118C-31.6602 133.679 -31.5138 133.386 -31.221 133.094L58.3683 43.7972C58.6611 43.5044 58.9539 43.358 59.393 43.358H141.077V46.2858L59.9786 46.2858L-28.7324 134.704V151.685Z" fill="#A30C33"/>
<path d="M183.53 299.537H73.739C73.2998 299.537 73.007 299.39 72.7143 299.097L-31.221 195.162C-31.5138 194.869 -31.6602 194.577 -31.6602 194.137V179.499H-28.7324V193.552L74.3245 296.609H183.53V299.537Z" fill="#A30C33"/>
<path d="M110.331 205.848H51.483C51.0438 205.848 50.751 205.702 50.4583 205.409L10.9336 166.177L12.983 164.128L52.0686 202.92H110.331V205.848Z" fill="#A30C33"/>
<path d="M69.6393 166.029L67.5898 163.98L106.968 124.309C107.261 124.016 107.554 123.87 107.993 123.87H167.426V126.798H108.578L69.6393 166.029Z" fill="#A30C33"/>
<path d="M293.311 91.6651L60.8472 91.6651C60.4081 91.6651 60.1153 91.5187 59.8225 91.2259L36.5469 67.6575L38.5963 65.608L61.4328 88.7373L293.311 88.7373V91.6651Z" fill="#A30C33"/>
<path d="M86.0299 45.8488L83.9805 43.7994L122.041 5.73861C122.334 5.44583 122.627 5.29944 123.066 5.29944L245.007 5.29944V8.22719L123.652 8.22719L86.0299 45.8488Z" fill="#A30C33"/>
<path d="M109.746 371.268L50.7516 312.274C50.4589 311.981 50.3125 311.688 50.3125 311.249V276.116H53.2403V310.663L111.795 369.218L109.746 371.268Z" fill="#A30C33"/>
<path d="M96.4244 298.655L94.375 296.605L133.168 257.52C133.461 257.227 133.753 257.081 134.192 257.081H281.605V260.008H134.924L96.4244 298.655Z" fill="#A30C33"/>
<path d="M233.298 340.526H167.716C167.277 340.526 166.984 340.38 166.692 340.087L125.41 298.806L127.46 296.756L168.302 337.599H233.298V340.526Z" fill="#A30C33"/>
<path d="M245.011 13.4937C248.73 13.4937 251.745 10.4788 251.745 6.75983C251.745 3.04084 248.73 0.026001 245.011 0.026001C241.292 0.026001 238.277 3.04084 238.277 6.75983C238.277 10.4788 241.292 13.4937 245.011 13.4937Z" fill="#A30C33"/>
<path d="M154.251 60.3375C145.761 60.3375 138.734 53.4573 138.734 44.8204C138.734 36.1836 145.615 29.3033 154.251 29.3033C162.888 29.3033 169.769 36.1836 169.769 44.8204C169.769 53.4573 162.742 60.3375 154.251 60.3375ZM154.251 32.2311C147.371 32.2311 141.662 37.9402 141.662 44.8204C141.662 51.7007 147.371 57.4098 154.251 57.4098C161.132 57.4098 166.841 51.7007 166.841 44.8204C166.841 37.9402 161.132 32.2311 154.251 32.2311Z" fill="#A30C33"/>
<path d="M154.246 51.5523C157.965 51.5523 160.979 48.5374 160.979 44.8184C160.979 41.0994 157.965 38.0846 154.246 38.0846C150.527 38.0846 147.512 41.0994 147.512 44.8184C147.512 48.5374 150.527 51.5523 154.246 51.5523Z" fill="#A30C33"/>
<path d="M300.05 90.4942C300.05 94.1539 296.976 97.228 293.316 97.228C289.656 97.228 286.582 94.1539 286.582 90.4942C286.582 86.8345 289.656 83.7604 293.316 83.7604C296.976 83.7604 300.05 86.6881 300.05 90.4942Z" fill="#A30C33"/>
<path d="M167.421 132.068C171.14 132.068 174.155 129.053 174.155 125.334C174.155 121.615 171.14 118.6 167.421 118.6C163.702 118.6 160.688 121.615 160.688 125.334C160.688 129.053 163.702 132.068 167.421 132.068Z" fill="#A30C33"/>
<path d="M242.08 180.377C233.589 180.377 226.562 173.496 226.562 164.86C226.562 156.223 233.443 149.342 242.08 149.342C250.716 149.342 257.597 156.223 257.597 164.86C257.597 173.496 250.57 180.377 242.08 180.377ZM242.08 152.27C235.199 152.27 229.49 157.979 229.49 164.86C229.49 171.74 235.199 177.449 242.08 177.449C248.96 177.449 254.669 171.74 254.669 164.86C254.669 157.979 248.96 152.27 242.08 152.27Z" fill="#A30C33"/>
<path d="M242.074 171.591C245.793 171.591 248.808 168.576 248.808 164.858C248.808 161.139 245.793 158.124 242.074 158.124C238.355 158.124 235.34 161.139 235.34 164.858C235.34 168.576 238.355 171.591 242.074 171.591Z" fill="#A30C33"/>
<path d="M110.324 211.119C114.043 211.119 117.058 208.104 117.058 204.385C117.058 200.666 114.043 197.651 110.324 197.651C106.605 197.651 103.59 200.666 103.59 204.385C103.59 208.104 106.605 211.119 110.324 211.119Z" fill="#A30C33"/>
<path d="M281.609 265.283C285.328 265.283 288.343 262.268 288.343 258.549C288.343 254.83 285.328 251.815 281.609 251.815C277.89 251.815 274.875 254.83 274.875 258.549C274.875 262.268 277.89 265.283 281.609 265.283Z" fill="#A30C33"/>
<path d="M196.701 313.298C188.21 313.298 181.184 306.418 181.184 297.781C181.184 289.144 188.064 282.264 196.701 282.264C205.338 282.264 212.218 289.144 212.218 297.781C212.218 306.418 205.191 313.298 196.701 313.298ZM196.701 285.192C189.82 285.192 184.111 290.901 184.111 297.781C184.111 304.662 189.82 310.371 196.701 310.371C203.581 310.371 209.29 304.662 209.29 297.781C209.29 290.901 203.581 285.192 196.701 285.192Z" fill="#A30C33"/>
<path d="M203.433 297.779C203.433 301.439 200.358 304.513 196.699 304.513C193.039 304.513 189.965 301.439 189.965 297.779C189.965 294.12 193.039 291.046 196.699 291.046C200.358 291.046 203.433 294.12 203.433 297.779Z" fill="#A30C33"/>
<path d="M233.296 345.794C237.015 345.794 240.03 342.78 240.03 339.061C240.03 335.342 237.015 332.327 233.296 332.327C229.577 332.327 226.562 335.342 226.562 339.061C226.562 342.78 229.577 345.794 233.296 345.794Z" fill="#A30C33"/>
<path d="M117.511 370.24C117.511 373.9 114.436 376.974 110.777 376.974C107.117 376.974 104.043 373.9 104.043 370.24C104.043 366.58 107.117 363.506 110.777 363.506C114.583 363.653 117.511 366.58 117.511 370.24Z" fill="#A30C33"/>
<g opacity="0.4">
<path d="M228.914 163.393L-19.9453 163.393V166.321L228.914 166.321V163.393Z" fill="black"/>
<path d="M-28.7324 151.685H-31.6602V134.118C-31.6602 133.679 -31.5138 133.386 -31.221 133.094L58.3683 43.7972C58.6611 43.5044 58.9539 43.358 59.393 43.358H141.077V46.2858L59.9786 46.2858L-28.7324 134.704V151.685Z" fill="black"/>
<path d="M183.53 299.537H73.739C73.2998 299.537 73.007 299.39 72.7143 299.097L-31.221 195.162C-31.5138 194.869 -31.6602 194.577 -31.6602 194.137V179.499H-28.7324V193.552L74.3245 296.609H183.53V299.537Z" fill="black"/>
<path d="M110.335 205.848H51.4869C51.0477 205.848 50.755 205.702 50.4622 205.409L10.9375 166.177L12.9869 164.128L52.0725 202.92H110.335V205.848Z" fill="black"/>
<path d="M69.6393 166.029L67.5898 163.98L106.968 124.309C107.261 124.016 107.554 123.87 107.993 123.87H167.426V126.798H108.578L69.6393 166.029Z" fill="black"/>
<path d="M293.319 91.6651L60.8551 91.6651C60.4159 91.6651 60.1231 91.5187 59.8303 91.2259L36.5547 67.6575L38.6041 65.608L61.4406 88.7373L293.319 88.7373V91.6651Z" fill="black"/>
<path d="M86.0377 45.8488L83.9883 43.7994L122.049 5.73861C122.342 5.44583 122.635 5.29944 123.074 5.29944L245.015 5.29944V8.22719L123.659 8.22719L86.0377 45.8488Z" fill="black"/>
<path d="M109.75 371.268L50.7556 312.274C50.4628 311.981 50.3164 311.688 50.3164 311.249V276.116H53.2442V310.663L111.799 369.218L109.75 371.268Z" fill="black"/>
<path d="M96.4244 298.655L94.375 296.605L133.168 257.52C133.461 257.227 133.753 257.081 134.192 257.081H281.605V260.008H134.924L96.4244 298.655Z" fill="black"/>
<path d="M233.298 340.526H167.716C167.277 340.526 166.984 340.38 166.692 340.087L125.41 298.806L127.46 296.756L168.302 337.599H233.298V340.526Z" fill="black"/>
<path d="M245.011 13.4937C248.73 13.4937 251.745 10.4788 251.745 6.75983C251.745 3.04084 248.73 0.026001 245.011 0.026001C241.292 0.026001 238.277 3.04084 238.277 6.75983C238.277 10.4788 241.292 13.4937 245.011 13.4937Z" fill="black"/>
<path d="M154.248 60.3375C145.757 60.3375 138.73 53.4573 138.73 44.8204C138.73 36.1836 145.611 29.3033 154.248 29.3033C162.884 29.3033 169.765 36.1836 169.765 44.8204C169.765 53.4573 162.738 60.3375 154.248 60.3375ZM154.248 32.2311C147.367 32.2311 141.658 37.9402 141.658 44.8204C141.658 51.7007 147.367 57.4098 154.248 57.4098C161.128 57.4098 166.837 51.7007 166.837 44.8204C166.837 37.9402 161.128 32.2311 154.248 32.2311Z" fill="black"/>
<path d="M300.054 90.4942C300.054 94.1539 296.979 97.228 293.32 97.228C289.66 97.228 286.586 94.1539 286.586 90.4942C286.586 86.8345 289.66 83.7604 293.32 83.7604C296.979 83.7604 300.054 86.6881 300.054 90.4942Z" fill="black"/>
<path d="M167.421 132.068C171.14 132.068 174.155 129.053 174.155 125.334C174.155 121.615 171.14 118.6 167.421 118.6C163.702 118.6 160.688 121.615 160.688 125.334C160.688 129.053 163.702 132.068 167.421 132.068Z" fill="black"/>
<path d="M242.084 180.377C233.593 180.377 226.566 173.496 226.566 164.86C226.566 156.223 233.447 149.342 242.084 149.342C250.72 149.342 257.601 156.223 257.601 164.86C257.601 173.496 250.574 180.377 242.084 180.377ZM242.084 152.27C235.203 152.27 229.494 157.979 229.494 164.86C229.494 171.74 235.203 177.449 242.084 177.449C248.964 177.449 254.673 171.74 254.673 164.86C254.673 157.979 248.964 152.27 242.084 152.27Z" fill="black"/>
<path d="M110.328 211.119C114.047 211.119 117.061 208.104 117.061 204.385C117.061 200.666 114.047 197.651 110.328 197.651C106.609 197.651 103.594 200.666 103.594 204.385C103.594 208.104 106.609 211.119 110.328 211.119Z" fill="black"/>
<path d="M281.609 265.283C285.328 265.283 288.343 262.268 288.343 258.549C288.343 254.83 285.328 251.815 281.609 251.815C277.89 251.815 274.875 254.83 274.875 258.549C274.875 262.268 277.89 265.283 281.609 265.283Z" fill="black"/>
<path d="M196.705 313.298C188.214 313.298 181.188 306.418 181.188 297.781C181.188 289.144 188.068 282.264 196.705 282.264C205.342 282.264 212.222 289.144 212.222 297.781C212.222 306.418 205.195 313.298 196.705 313.298ZM196.705 285.192C189.825 285.192 184.115 290.901 184.115 297.781C184.115 304.662 189.825 310.371 196.705 310.371C203.585 310.371 209.294 304.662 209.294 297.781C209.294 290.901 203.585 285.192 196.705 285.192Z" fill="black"/>
<path d="M233.3 345.794C237.019 345.794 240.034 342.78 240.034 339.061C240.034 335.342 237.019 332.327 233.3 332.327C229.581 332.327 226.566 335.342 226.566 339.061C226.566 342.78 229.581 345.794 233.3 345.794Z" fill="black"/>
<path d="M117.511 370.24C117.511 373.9 114.436 376.974 110.777 376.974C107.117 376.974 104.043 373.9 104.043 370.24C104.043 366.58 107.117 363.506 110.777 363.506C114.583 363.653 117.511 366.58 117.511 370.24Z" fill="black"/>
</g>
</g>
</svg>
